<svg width="1862.999023" height="959.000000" viewBox="0 0 1863 959" fill="none" xmlns="http://www.w3.org/2000/svg" xmlns:xlink="http://www.w3.org/1999/xlink">
	<desc>
			Created with Pixso.
	</desc>
	<defs>
		<clipPath id="clip2234_9749">
			<rect id="circles" width="145.000000" height="145.000000" transform="translate(0.000000 814.000000)" fill="white" fill-opacity="0"/>
		</clipPath>
		<clipPath id="clip2234_9828">
			<rect id="dots" width="143.000000" height="105.000000" transform="translate(1177.000000 0.000000)" fill="white" fill-opacity="0"/>
		</clipPath>
	</defs>
	<g opacity="0.600000">
		<g clip-path="url(#clip2234_9749)">
			<path id="Vector" d="M72.54 814C32.44 814 0 846.44 0 886.54C0 926.55 32.44 959.1 72.54 959.1C112.55 959.1 145.1 926.65 145.1 886.54C145 846.44 112.55 814 72.54 814ZM72.54 954.42C35.03 954.42 4.67 924.06 4.67 886.54C4.67 849.03 35.03 818.67 72.54 818.67C110.06 818.67 140.42 849.03 140.42 886.54C140.42 923.96 109.96 954.42 72.54 954.42Z" fill="#FFFFFF" fill-opacity="1.000000" fill-rule="nonzero"/>
			<path id="Vector" d="M72.54 829.62C41.2 829.62 15.72 855.1 15.72 886.45C15.72 917.79 41.2 943.27 72.54 943.27C103.89 943.27 129.37 917.89 129.37 886.55C129.37 855.1 103.89 829.62 72.54 829.62ZM72.54 934.61C45.97 934.61 24.38 913.02 24.38 886.45C24.38 859.87 45.97 838.28 72.54 838.28C99.12 838.28 120.71 859.87 120.71 886.45C120.71 913.02 99.12 934.61 72.54 934.61Z" fill="#FFFFFF" fill-opacity="1.000000" fill-rule="nonzero"/>
			<path id="Vector" d="M72.55 854.6C54.93 854.6 40.6 868.93 40.6 886.54C40.6 904.16 54.83 918.49 72.55 918.49C90.16 918.49 104.49 904.16 104.49 886.54C104.39 868.93 90.16 854.6 72.55 854.6ZM72.55 903.66C63.09 903.66 55.43 896 55.43 886.54C55.43 877.09 63.09 869.43 72.55 869.43C82 869.43 89.66 877.09 89.66 886.54C89.66 896 82 903.66 72.55 903.66Z" fill="#FFFFFF" fill-opacity="1.000000" fill-rule="nonzero"/>
		</g>
	</g>
	<g opacity="0.600000">
		<path id="Vector" d="M1831.3 512.92L1831.3 501L1863 501L1863 532.69L1851.17 532.69L1851.17 512.92L1831.3 512.92Z" fill="#FFFFFF" fill-opacity="1.000000" fill-rule="nonzero"/>
		<path id="Vector" d="M1809.9 534.32L1809.9 522.49L1841.6 522.49L1841.6 554.1L1829.68 554.1L1829.68 534.32L1809.9 534.32Z" fill="#FFFFFF" fill-opacity="1.000000" fill-rule="nonzero"/>
		<path id="Vector" d="M1788.49 555.81L1788.49 543.89L1820.1 543.89L1820.1 575.59L1808.27 575.59L1808.27 555.81L1788.49 555.81Z" fill="#FFFFFF" fill-opacity="1.000000" fill-rule="nonzero"/>
		<path id="Vector" d="M1767 577.22L1767 565.3L1798.7 565.3L1798.7 597L1786.78 597L1786.78 577.22L1767 577.22Z" fill="#FFFFFF" fill-opacity="1.000000" fill-rule="nonzero"/>
	</g>
	<g clip-path="url(#clip2234_9828)">
		<path id="Vector" d="M1181.07 30.85C1181.07 32.02 1180.21 32.89 1179.04 32.89C1177.87 32.89 1177 32.02 1177 30.85C1177 29.69 1177.87 28.82 1179.04 28.82C1180.21 28.82 1181.07 29.79 1181.07 30.85Z" fill="#FFFFFF" fill-opacity="1.000000" fill-rule="nonzero"/>
		<path id="Vector" d="M1198.47 30.85C1198.47 32.02 1197.6 32.89 1196.43 32.89C1195.26 32.89 1194.39 32.02 1194.39 30.85C1194.39 29.69 1195.26 28.82 1196.43 28.82C1197.5 28.82 1198.47 29.79 1198.47 30.85Z" fill="#FFFFFF" fill-opacity="1.000000" fill-rule="nonzero"/>
		<path id="Vector" d="M1215.76 30.85C1215.76 32.02 1214.89 32.89 1213.72 32.89C1212.56 32.89 1211.68 32.02 1211.68 30.85C1211.68 29.69 1212.56 28.82 1213.72 28.82C1214.89 28.82 1215.76 29.79 1215.76 30.85Z" fill="#FFFFFF" fill-opacity="1.000000" fill-rule="nonzero"/>
		<path id="Vector" d="M1233.15 30.85C1233.15 32.02 1232.28 32.89 1231.11 32.89C1229.94 32.89 1229.06 32.02 1229.06 30.85C1229.06 29.69 1229.94 28.82 1231.11 28.82C1232.28 28.82 1233.15 29.79 1233.15 30.85Z" fill="#FFFFFF" fill-opacity="1.000000" fill-rule="nonzero"/>
		<path id="Vector" d="M1250.54 30.85C1250.54 32.02 1249.67 32.89 1248.5 32.89C1247.32 32.89 1246.46 32.02 1246.46 30.85C1246.46 29.69 1247.32 28.82 1248.5 28.82C1249.56 28.82 1250.54 29.79 1250.54 30.85Z" fill="#FFFFFF" fill-opacity="1.000000" fill-rule="nonzero"/>
		<path id="Vector" d="M1267.93 30.85C1267.93 32.02 1267.06 32.89 1265.89 32.89C1264.72 32.89 1263.85 32.02 1263.85 30.85C1263.85 29.69 1264.72 28.82 1265.89 28.82C1267.06 28.82 1267.93 29.79 1267.93 30.85Z" fill="#FFFFFF" fill-opacity="1.000000" fill-rule="nonzero"/>
		<path id="Vector" d="M1285.22 30.85C1285.22 32.02 1284.35 32.89 1283.18 32.89C1282.02 32.89 1281.14 32.02 1281.14 30.85C1281.14 29.69 1282.02 28.82 1283.18 28.82C1284.35 28.82 1285.22 29.79 1285.22 30.85Z" fill="#FFFFFF" fill-opacity="1.000000" fill-rule="nonzero"/>
		<path id="Vector" d="M1302.61 30.85C1302.61 32.02 1301.74 32.89 1300.56 32.89C1299.41 32.89 1298.53 32.02 1298.53 30.85C1298.53 29.69 1299.41 28.82 1300.56 28.82C1301.74 28.82 1302.61 29.79 1302.61 30.85Z" fill="#FFFFFF" fill-opacity="1.000000" fill-rule="nonzero"/>
		<path id="Vector" d="M1320 30.85C1320 32.02 1319.13 32.89 1317.96 32.89C1316.79 32.89 1315.92 32.02 1315.92 30.85C1315.92 29.69 1316.79 28.82 1317.96 28.82C1319.03 28.82 1320 29.79 1320 30.85Z" fill="#FFFFFF" fill-opacity="1.000000" fill-rule="nonzero"/>
		<path id="Vector" d="M1181.07 45.31C1181.07 46.48 1180.21 47.35 1179.04 47.35C1177.87 47.35 1177 46.48 1177 45.31C1177 44.15 1177.87 43.28 1179.04 43.28C1180.21 43.28 1181.07 44.15 1181.07 45.31Z" fill="#FFFFFF" fill-opacity="1.000000" fill-rule="nonzero"/>
		<path id="Vector" d="M1198.47 45.31C1198.47 46.48 1197.6 47.35 1196.43 47.35C1195.26 47.35 1194.39 46.48 1194.39 45.31C1194.39 44.15 1195.26 43.28 1196.43 43.28C1197.5 43.28 1198.47 44.15 1198.47 45.31Z" fill="#FFFFFF" fill-opacity="1.000000" fill-rule="nonzero"/>
		<path id="Vector" d="M1215.76 45.31C1215.76 46.48 1214.89 47.35 1213.72 47.35C1212.56 47.35 1211.68 46.48 1211.68 45.31C1211.68 44.15 1212.56 43.28 1213.72 43.28C1214.89 43.28 1215.76 44.15 1215.76 45.31Z" fill="#FFFFFF" fill-opacity="1.000000" fill-rule="nonzero"/>
		<path id="Vector" d="M1233.15 45.31C1233.15 46.48 1232.28 47.35 1231.11 47.35C1229.94 47.35 1229.06 46.48 1229.06 45.31C1229.06 44.15 1229.94 43.28 1231.11 43.28C1232.28 43.28 1233.15 44.15 1233.15 45.31Z" fill="#FFFFFF" fill-opacity="1.000000" fill-rule="nonzero"/>
		<path id="Vector" d="M1250.54 45.31C1250.54 46.48 1249.67 47.35 1248.5 47.35C1247.32 47.35 1246.46 46.48 1246.46 45.31C1246.46 44.15 1247.32 43.28 1248.5 43.28C1249.56 43.28 1250.54 44.15 1250.54 45.31Z" fill="#FFFFFF" fill-opacity="1.000000" fill-rule="nonzero"/>
		<path id="Vector" d="M1267.93 45.31C1267.93 46.48 1267.06 47.35 1265.89 47.35C1264.72 47.35 1263.85 46.48 1263.85 45.31C1263.85 44.15 1264.72 43.28 1265.89 43.28C1267.06 43.28 1267.93 44.15 1267.93 45.31Z" fill="#FFFFFF" fill-opacity="1.000000" fill-rule="nonzero"/>
		<path id="Vector" d="M1285.22 45.31C1285.22 46.48 1284.35 47.35 1283.18 47.35C1282.02 47.35 1281.14 46.48 1281.14 45.31C1281.14 44.15 1282.02 43.28 1283.18 43.28C1284.35 43.28 1285.22 44.15 1285.22 45.31Z" fill="#FFFFFF" fill-opacity="1.000000" fill-rule="nonzero"/>
		<path id="Vector" d="M1302.61 45.31C1302.61 46.48 1301.74 47.35 1300.56 47.35C1299.41 47.35 1298.53 46.48 1298.53 45.31C1298.53 44.15 1299.41 43.28 1300.56 43.28C1301.74 43.28 1302.61 44.15 1302.61 45.31Z" fill="#FFFFFF" fill-opacity="1.000000" fill-rule="nonzero"/>
		<path id="Vector" d="M1320 45.31C1320 46.48 1319.13 47.35 1317.96 47.35C1316.79 47.35 1315.92 46.48 1315.92 45.31C1315.92 44.15 1316.79 43.28 1317.96 43.28C1319.03 43.28 1320 44.15 1320 45.31Z" fill="#FFFFFF" fill-opacity="1.000000" fill-rule="nonzero"/>
		<path id="Vector" d="M1181.07 2.03C1181.07 3.2 1180.21 4.07 1179.04 4.07C1177.87 4.07 1177 3.2 1177 2.03C1177 0.87 1177.87 0 1179.04 0C1180.21 0 1181.07 0.87 1181.07 2.03Z" fill="#FFFFFF" fill-opacity="1.000000" fill-rule="nonzero"/>
		<path id="Vector" d="M1198.47 2.03C1198.47 3.2 1197.6 4.07 1196.43 4.07C1195.26 4.07 1194.39 3.2 1194.39 2.03C1194.39 0.87 1195.26 0 1196.43 0C1197.5 0 1198.47 0.87 1198.47 2.03Z" fill="#FFFFFF" fill-opacity="1.000000" fill-rule="nonzero"/>
		<path id="Vector" d="M1215.76 2.03C1215.76 3.2 1214.89 4.07 1213.72 4.07C1212.56 4.07 1211.68 3.2 1211.68 2.03C1211.68 0.87 1212.65 0 1213.72 0C1214.89 0 1215.76 0.87 1215.76 2.03Z" fill="#FFFFFF" fill-opacity="1.000000" fill-rule="nonzero"/>
		<path id="Vector" d="M1233.15 2.03C1233.15 3.2 1232.28 4.07 1231.11 4.07C1229.94 4.07 1229.06 3.2 1229.06 2.03C1229.06 0.87 1230.04 0 1231.11 0C1232.18 0 1233.15 0.87 1233.15 2.03Z" fill="#FFFFFF" fill-opacity="1.000000" fill-rule="nonzero"/>
		<path id="Vector" d="M1250.54 2.03C1250.54 3.2 1249.67 4.07 1248.5 4.07C1247.32 4.07 1246.46 3.2 1246.46 2.03C1246.46 0.87 1247.32 0 1248.5 0C1249.56 0 1250.54 0.87 1250.54 2.03Z" fill="#FFFFFF" fill-opacity="1.000000" fill-rule="nonzero"/>
		<path id="Vector" d="M1267.93 2.03C1267.93 3.2 1267.06 4.07 1265.89 4.07C1264.72 4.07 1263.85 3.2 1263.85 2.03C1263.85 0.87 1264.72 0 1265.89 0C1267.06 0 1267.93 0.87 1267.93 2.03Z" fill="#FFFFFF" fill-opacity="1.000000" fill-rule="nonzero"/>
		<path id="Vector" d="M1285.22 2.03C1285.22 3.2 1284.35 4.07 1283.18 4.07C1282.02 4.07 1281.14 3.2 1281.14 2.03C1281.14 0.87 1282.02 0 1283.18 0C1284.35 0 1285.22 0.87 1285.22 2.03Z" fill="#FFFFFF" fill-opacity="1.000000" fill-rule="nonzero"/>
		<path id="Vector" d="M1302.61 2.03C1302.61 3.2 1301.74 4.07 1300.56 4.07C1299.41 4.07 1298.53 3.2 1298.53 2.03C1298.53 0.87 1299.41 0 1300.56 0C1301.74 0 1302.61 0.87 1302.61 2.03Z" fill="#FFFFFF" fill-opacity="1.000000" fill-rule="nonzero"/>
		<path id="Vector" d="M1320 2.03C1320 3.2 1319.13 4.07 1317.96 4.07C1316.79 4.07 1315.92 3.2 1315.92 2.03C1315.92 0.87 1316.79 0 1317.96 0C1319.03 0 1320 0.87 1320 2.03Z" fill="#FFFFFF" fill-opacity="1.000000" fill-rule="nonzero"/>
		<path id="Vector" d="M1181.07 16.49C1181.07 17.66 1180.21 18.53 1179.04 18.53C1177.87 18.53 1177 17.56 1177 16.49C1177 15.33 1177.87 14.45 1179.04 14.45C1180.21 14.45 1181.07 15.33 1181.07 16.49Z" fill="#FFFFFF" fill-opacity="1.000000" fill-rule="nonzero"/>
		<path id="Vector" d="M1198.47 16.49C1198.47 17.66 1197.6 18.53 1196.43 18.53C1195.26 18.53 1194.39 17.66 1194.39 16.49C1194.39 15.33 1195.26 14.45 1196.43 14.45C1197.5 14.45 1198.47 15.33 1198.47 16.49Z" fill="#FFFFFF" fill-opacity="1.000000" fill-rule="nonzero"/>
		<path id="Vector" d="M1215.76 16.49C1215.76 17.66 1214.89 18.53 1213.72 18.53C1212.56 18.53 1211.68 17.66 1211.68 16.49C1211.68 15.33 1212.56 14.45 1213.72 14.45C1214.89 14.45 1215.76 15.33 1215.76 16.49Z" fill="#FFFFFF" fill-opacity="1.000000" fill-rule="nonzero"/>
		<path id="Vector" d="M1233.15 16.49C1233.15 17.66 1232.28 18.53 1231.11 18.53C1229.94 18.53 1229.06 17.66 1229.06 16.49C1229.06 15.33 1229.94 14.45 1231.11 14.45C1232.28 14.45 1233.15 15.33 1233.15 16.49Z" fill="#FFFFFF" fill-opacity="1.000000" fill-rule="nonzero"/>
		<path id="Vector" d="M1250.54 16.49C1250.54 17.66 1249.67 18.53 1248.5 18.53C1247.32 18.53 1246.46 17.66 1246.46 16.49C1246.46 15.33 1247.32 14.45 1248.5 14.45C1249.56 14.45 1250.54 15.33 1250.54 16.49Z" fill="#FFFFFF" fill-opacity="1.000000" fill-rule="nonzero"/>
		<path id="Vector" d="M1267.93 16.49C1267.93 17.66 1267.06 18.53 1265.89 18.53C1264.72 18.53 1263.85 17.66 1263.85 16.49C1263.85 15.33 1264.72 14.45 1265.89 14.45C1267.06 14.45 1267.93 15.33 1267.93 16.49Z" fill="#FFFFFF" fill-opacity="1.000000" fill-rule="nonzero"/>
		<path id="Vector" d="M1285.22 16.49C1285.22 17.66 1284.35 18.53 1283.18 18.53C1282.02 18.53 1281.14 17.66 1281.14 16.49C1281.14 15.33 1282.02 14.45 1283.18 14.45C1284.35 14.45 1285.22 15.33 1285.22 16.49Z" fill="#FFFFFF" fill-opacity="1.000000" fill-rule="nonzero"/>
		<path id="Vector" d="M1302.61 16.49C1302.61 17.66 1301.74 18.53 1300.56 18.53C1299.41 18.53 1298.53 17.66 1298.53 16.49C1298.53 15.33 1299.41 14.45 1300.56 14.45C1301.74 14.45 1302.61 15.33 1302.61 16.49Z" fill="#FFFFFF" fill-opacity="1.000000" fill-rule="nonzero"/>
		<path id="Vector" d="M1320 16.49C1320 17.66 1319.13 18.53 1317.96 18.53C1316.79 18.53 1315.92 17.66 1315.92 16.49C1315.92 15.33 1316.79 14.45 1317.96 14.45C1319.03 14.45 1320 15.33 1320 16.49Z" fill="#FFFFFF" fill-opacity="1.000000" fill-rule="nonzero"/>
		<path id="Vector" d="M1181.07 59.67C1181.07 60.84 1180.21 61.71 1179.04 61.71C1177.87 61.71 1177 60.84 1177 59.67C1177 58.51 1177.87 57.64 1179.04 57.64C1180.21 57.64 1181.07 58.61 1181.07 59.67Z" fill="#FFFFFF" fill-opacity="1.000000" fill-rule="nonzero"/>
		<path id="Vector" d="M1198.47 59.67C1198.47 60.84 1197.6 61.71 1196.43 61.71C1195.26 61.71 1194.39 60.84 1194.39 59.67C1194.39 58.51 1195.26 57.64 1196.43 57.64C1197.5 57.64 1198.47 58.61 1198.47 59.67Z" fill="#FFFFFF" fill-opacity="1.000000" fill-rule="nonzero"/>
		<path id="Vector" d="M1215.76 59.67C1215.76 60.84 1214.89 61.71 1213.72 61.71C1212.56 61.71 1211.68 60.84 1211.68 59.67C1211.68 58.51 1212.56 57.64 1213.72 57.64C1214.89 57.64 1215.76 58.61 1215.76 59.67Z" fill="#FFFFFF" fill-opacity="1.000000" fill-rule="nonzero"/>
		<path id="Vector" d="M1233.15 59.67C1233.15 60.84 1232.28 61.71 1231.11 61.71C1229.94 61.71 1229.06 60.84 1229.06 59.67C1229.06 58.51 1229.94 57.64 1231.11 57.64C1232.28 57.64 1233.15 58.61 1233.15 59.67Z" fill="#FFFFFF" fill-opacity="1.000000" fill-rule="nonzero"/>
		<path id="Vector" d="M1250.54 59.67C1250.54 60.84 1249.67 61.71 1248.5 61.71C1247.32 61.71 1246.46 60.84 1246.46 59.67C1246.46 58.51 1247.32 57.64 1248.5 57.64C1249.56 57.64 1250.54 58.61 1250.54 59.67Z" fill="#FFFFFF" fill-opacity="1.000000" fill-rule="nonzero"/>
		<path id="Vector" d="M1267.93 59.67C1267.93 60.84 1267.06 61.71 1265.89 61.71C1264.72 61.71 1263.85 60.84 1263.85 59.67C1263.85 58.51 1264.72 57.64 1265.89 57.64C1267.06 57.64 1267.93 58.61 1267.93 59.67Z" fill="#FFFFFF" fill-opacity="1.000000" fill-rule="nonzero"/>
		<path id="Vector" d="M1285.22 59.67C1285.22 60.84 1284.35 61.71 1283.18 61.71C1282.02 61.71 1281.14 60.84 1281.14 59.67C1281.14 58.51 1282.02 57.64 1283.18 57.64C1284.35 57.64 1285.22 58.61 1285.22 59.67Z" fill="#FFFFFF" fill-opacity="1.000000" fill-rule="nonzero"/>
		<path id="Vector" d="M1302.61 59.67C1302.61 60.84 1301.74 61.71 1300.56 61.71C1299.41 61.71 1298.53 60.84 1298.53 59.67C1298.53 58.51 1299.41 57.64 1300.56 57.64C1301.74 57.64 1302.61 58.61 1302.61 59.67Z" fill="#FFFFFF" fill-opacity="1.000000" fill-rule="nonzero"/>
		<path id="Vector" d="M1320 59.67C1320 60.84 1319.13 61.71 1317.96 61.71C1316.79 61.71 1315.92 60.84 1315.92 59.67C1315.92 58.51 1316.79 57.64 1317.96 57.64C1319.03 57.64 1320 58.61 1320 59.67Z" fill="#FFFFFF" fill-opacity="1.000000" fill-rule="nonzero"/>
		<path id="Vector" d="M1181.07 74.13C1181.07 75.3 1180.21 76.17 1179.04 76.17C1177.87 76.17 1177 75.3 1177 74.13C1177 72.97 1177.87 72.1 1179.04 72.1C1180.21 72.1 1181.07 72.97 1181.07 74.13Z" fill="#FFFFFF" fill-opacity="1.000000" fill-rule="nonzero"/>
		<path id="Vector" d="M1198.47 74.13C1198.47 75.3 1197.6 76.17 1196.43 76.17C1195.26 76.17 1194.39 75.3 1194.39 74.13C1194.39 72.97 1195.26 72.1 1196.43 72.1C1197.5 72.1 1198.47 72.97 1198.47 74.13Z" fill="#FFFFFF" fill-opacity="1.000000" fill-rule="nonzero"/>
		<path id="Vector" d="M1215.76 74.13C1215.76 75.3 1214.89 76.17 1213.72 76.17C1212.56 76.17 1211.68 75.3 1211.68 74.13C1211.68 72.97 1212.56 72.1 1213.72 72.1C1214.89 72.1 1215.76 72.97 1215.76 74.13Z" fill="#FFFFFF" fill-opacity="1.000000" fill-rule="nonzero"/>
		<path id="Vector" d="M1233.15 74.13C1233.15 75.26 1232.24 76.17 1231.11 76.17C1229.98 76.17 1229.06 75.26 1229.06 74.13C1229.06 73.01 1229.98 72.1 1231.11 72.1C1232.24 72.1 1233.15 73.01 1233.15 74.13Z" fill="#FFFFFF" fill-opacity="1.000000" fill-rule="evenodd"/>
		<path id="Vector" d="M1250.54 74.13C1250.54 75.3 1249.67 76.17 1248.5 76.17C1247.32 76.17 1246.46 75.3 1246.46 74.13C1246.46 72.97 1247.32 72.1 1248.5 72.1C1249.56 72.1 1250.54 72.97 1250.54 74.13Z" fill="#FFFFFF" fill-opacity="1.000000" fill-rule="nonzero"/>
		<path id="Vector" d="M1267.93 74.13C1267.93 75.3 1267.06 76.17 1265.89 76.17C1264.72 76.17 1263.85 75.3 1263.85 74.13C1263.85 72.97 1264.72 72.1 1265.89 72.1C1267.06 72.1 1267.93 72.97 1267.93 74.13Z" fill="#FFFFFF" fill-opacity="1.000000" fill-rule="nonzero"/>
		<path id="Vector" d="M1285.22 74.13C1285.22 75.3 1284.35 76.17 1283.18 76.17C1282.02 76.17 1281.14 75.3 1281.14 74.13C1281.14 72.97 1282.02 72.1 1283.18 72.1C1284.35 72.1 1285.22 72.97 1285.22 74.13Z" fill="#FFFFFF" fill-opacity="1.000000" fill-rule="nonzero"/>
		<path id="Vector" d="M1302.61 74.13C1302.61 75.26 1301.69 76.17 1300.56 76.17C1299.43 76.17 1298.53 75.26 1298.53 74.13C1298.53 73.01 1299.43 72.1 1300.56 72.1C1301.69 72.1 1302.61 73.01 1302.61 74.13Z" fill="#FFFFFF" fill-opacity="1.000000" fill-rule="evenodd"/>
		<path id="Vector" d="M1320 74.13C1320 75.3 1319.13 76.17 1317.96 76.17C1316.79 76.17 1315.92 75.3 1315.92 74.13C1315.92 72.97 1316.79 72.1 1317.96 72.1C1319.03 72.1 1320 72.97 1320 74.13Z" fill="#FFFFFF" fill-opacity="1.000000" fill-rule="nonzero"/>
		<path id="Vector" d="M1181.07 88.59C1181.07 89.76 1180.21 90.63 1179.04 90.63C1177.87 90.63 1177 89.76 1177 88.59C1177 87.43 1177.87 86.56 1179.04 86.56C1180.21 86.56 1181.07 87.43 1181.07 88.59Z" fill="#FFFFFF" fill-opacity="1.000000" fill-rule="nonzero"/>
		<path id="Vector" d="M1198.47 88.59C1198.47 89.76 1197.6 90.63 1196.43 90.63C1195.26 90.63 1194.39 89.76 1194.39 88.59C1194.39 87.43 1195.26 86.56 1196.43 86.56C1197.5 86.56 1198.47 87.43 1198.47 88.59Z" fill="#FFFFFF" fill-opacity="1.000000" fill-rule="nonzero"/>
		<path id="Vector" d="M1215.76 88.59C1215.76 89.76 1214.89 90.63 1213.72 90.63C1212.56 90.63 1211.68 89.76 1211.68 88.59C1211.68 87.43 1212.56 86.56 1213.72 86.56C1214.89 86.56 1215.76 87.43 1215.76 88.59Z" fill="#FFFFFF" fill-opacity="1.000000" fill-rule="nonzero"/>
		<path id="Vector" d="M1233.15 88.59C1233.15 89.76 1232.28 90.63 1231.11 90.63C1229.94 90.63 1229.06 89.76 1229.06 88.59C1229.06 87.43 1229.94 86.56 1231.11 86.56C1232.28 86.56 1233.15 87.43 1233.15 88.59Z" fill="#FFFFFF" fill-opacity="1.000000" fill-rule="nonzero"/>
		<path id="Vector" d="M1250.54 88.59C1250.54 89.76 1249.67 90.63 1248.5 90.63C1247.32 90.63 1246.46 89.76 1246.46 88.59C1246.46 87.43 1247.32 86.56 1248.5 86.56C1249.56 86.56 1250.54 87.43 1250.54 88.59Z" fill="#FFFFFF" fill-opacity="1.000000" fill-rule="nonzero"/>
		<path id="Vector" d="M1267.93 88.59C1267.93 89.76 1267.06 90.63 1265.89 90.63C1264.72 90.63 1263.85 89.76 1263.85 88.59C1263.85 87.43 1264.72 86.56 1265.89 86.56C1267.06 86.56 1267.93 87.43 1267.93 88.59Z" fill="#FFFFFF" fill-opacity="1.000000" fill-rule="nonzero"/>
		<path id="Vector" d="M1285.22 88.59C1285.22 89.76 1284.35 90.63 1283.18 90.63C1282.02 90.63 1281.14 89.76 1281.14 88.59C1281.14 87.43 1282.02 86.56 1283.18 86.56C1284.35 86.56 1285.22 87.43 1285.22 88.59Z" fill="#FFFFFF" fill-opacity="1.000000" fill-rule="nonzero"/>
		<path id="Vector" d="M1302.61 88.59C1302.61 89.76 1301.74 90.63 1300.56 90.63C1299.41 90.63 1298.53 89.76 1298.53 88.59C1298.53 87.43 1299.41 86.56 1300.56 86.56C1301.74 86.56 1302.61 87.43 1302.61 88.59Z" fill="#FFFFFF" fill-opacity="1.000000" fill-rule="nonzero"/>
		<path id="Vector" d="M1320 88.59C1320 89.76 1319.13 90.63 1317.96 90.63C1316.79 90.63 1315.92 89.76 1315.92 88.59C1315.92 87.43 1316.79 86.56 1317.96 86.56C1319.03 86.56 1320 87.43 1320 88.59Z" fill="#FFFFFF" fill-opacity="1.000000" fill-rule="nonzero"/>
		<path id="Vector" d="M1181.07 102.96C1181.07 104.12 1180.21 105 1179.04 105C1177.87 105 1177 104.12 1177 102.96C1177 101.79 1177.87 100.92 1179.04 100.92C1180.21 100.92 1181.07 101.89 1181.07 102.96Z" fill="#FFFFFF" fill-opacity="1.000000" fill-rule="nonzero"/>
		<path id="Vector" d="M1198.47 102.96C1198.47 104.12 1197.6 105 1196.43 105C1195.26 105 1194.39 104.12 1194.39 102.96C1194.39 101.79 1195.26 100.92 1196.43 100.92C1197.5 100.92 1198.47 101.89 1198.47 102.96Z" fill="#FFFFFF" fill-opacity="1.000000" fill-rule="nonzero"/>
		<path id="Vector" d="M1215.76 102.96C1215.76 104.12 1214.89 105 1213.72 105C1212.56 105 1211.68 104.12 1211.68 102.96C1211.68 101.79 1212.56 100.92 1213.72 100.92C1214.89 100.92 1215.76 101.89 1215.76 102.96Z" fill="#FFFFFF" fill-opacity="1.000000" fill-rule="nonzero"/>
		<path id="Vector" d="M1233.15 102.96C1233.15 104.12 1232.28 105 1231.11 105C1229.94 105 1229.06 104.12 1229.06 102.96C1229.06 101.79 1229.94 100.92 1231.11 100.92C1232.28 100.92 1233.15 101.89 1233.15 102.96Z" fill="#FFFFFF" fill-opacity="1.000000" fill-rule="nonzero"/>
		<path id="Vector" d="M1250.54 102.96C1250.54 104.12 1249.67 105 1248.5 105C1247.32 105 1246.46 104.12 1246.46 102.96C1246.46 101.79 1247.32 100.92 1248.5 100.92C1249.56 100.92 1250.54 101.89 1250.54 102.96Z" fill="#FFFFFF" fill-opacity="1.000000" fill-rule="nonzero"/>
		<path id="Vector" d="M1267.93 102.96C1267.93 104.12 1267.06 105 1265.89 105C1264.72 105 1263.85 104.12 1263.85 102.96C1263.85 101.79 1264.72 100.92 1265.89 100.92C1267.06 100.92 1267.93 101.89 1267.93 102.96Z" fill="#FFFFFF" fill-opacity="1.000000" fill-rule="nonzero"/>
		<path id="Vector" d="M1285.22 102.96C1285.22 104.12 1284.35 105 1283.18 105C1282.02 105 1281.14 104.12 1281.14 102.96C1281.14 101.79 1282.02 100.92 1283.18 100.92C1284.35 100.92 1285.22 101.89 1285.22 102.96Z" fill="#FFFFFF" fill-opacity="1.000000" fill-rule="nonzero"/>
		<path id="Vector" d="M1302.61 102.96C1302.61 104.12 1301.74 105 1300.56 105C1299.41 105 1298.53 104.12 1298.53 102.96C1298.53 101.79 1299.41 100.92 1300.56 100.92C1301.74 100.92 1302.61 101.89 1302.61 102.96Z" fill="#FFFFFF" fill-opacity="1.000000" fill-rule="nonzero"/>
		<path id="Vector" d="M1320 102.96C1320 104.12 1319.13 105 1317.96 105C1316.79 105 1315.92 104.12 1315.92 102.96C1315.92 101.79 1316.79 100.92 1317.96 100.92C1319.03 100.92 1320 101.89 1320 102.96Z" fill="#FFFFFF" fill-opacity="1.000000" fill-rule="nonzero"/>
	</g>
	<g opacity="0.600000">
		<path id="Vector" d="M170 81.97C160.63 91.33 145.38 91.33 136.02 81.97C126.65 72.61 126.65 57.36 136.02 48L170 81.97Z" fill="#FFFFFF" fill-opacity="1.000000" fill-rule="nonzero"/>
	</g>
</svg>
